REM DIRINDEX 1\2,1\3,1\4,1\5\6,1\5\7,1\8
REM DIRNAME folder01,folder02,folder03,folder04,folder05,folder06,folder07,folder08
TITLE ""
FILE "080 【080】Unit5 (0901 numerous_0912 engage).mp3" MP3
  TRACK 01 AUDIO
    TITLE "0:"
    INDEX 01 00:00:00
  TRACK 02 AUDIO
    TITLE "2:cjc115_3144"
    INDEX 01 00:00:07
  TRACK 03 AUDIO
    TITLE "0:"
    INDEX 01 00:01:28
  TRACK 04 AUDIO
    TITLE "3:cjc115_3145"
    INDEX 01 00:01:44
  TRACK 05 AUDIO
    TITLE "0:"
    INDEX 01 00:03:55
  TRACK 06 AUDIO
    TITLE "4:cjc115_3146"
    INDEX 01 00:03:63
  TRACK 07 AUDIO
    TITLE "0:"
    INDEX 01 00:06:67
  TRACK 08 AUDIO
    TITLE "2:cjc115_3147"
    INDEX 01 00:08:03
  TRACK 09 AUDIO
    TITLE "0:"
    INDEX 01 00:09:26
  TRACK 10 AUDIO
    TITLE "3:cjc115_3148"
    INDEX 01 00:09:40
  TRACK 11 AUDIO
    TITLE "0:"
    INDEX 01 00:11:46
  TRACK 12 AUDIO
    TITLE "4:cjc115_3149"
    INDEX 01 00:11:58
  TRACK 13 AUDIO
    TITLE "0:"
    INDEX 01 00:16:55
  TRACK 14 AUDIO
    TITLE "2:cjc115_3150"
    INDEX 01 00:17:69
  TRACK 15 AUDIO
    TITLE "0:"
    INDEX 01 00:18:70
  TRACK 16 AUDIO
    TITLE "3:cjc115_3151"
    INDEX 01 00:19:07
  TRACK 17 AUDIO
    TITLE "0:"
    INDEX 01 00:21:25
  TRACK 18 AUDIO
    TITLE "4:cjc115_3152"
    INDEX 01 00:21:39
  TRACK 19 AUDIO
    TITLE "0:"
    INDEX 01 00:25:50
  TRACK 20 AUDIO
    TITLE "2:cjc115_3153"
    INDEX 01 00:26:66
  TRACK 21 AUDIO
    TITLE "0:"
    INDEX 01 00:27:73
  TRACK 22 AUDIO
    TITLE "3:cjc115_3154"
    INDEX 01 00:28:13
  TRACK 23 AUDIO
    TITLE "0:"
    INDEX 01 00:29:07
  TRACK 24 AUDIO
    TITLE "4:cjc115_3155"
    INDEX 01 00:29:17
  TRACK 25 AUDIO
    TITLE "0:"
    INDEX 01 00:32:43
  TRACK 26 AUDIO
    TITLE "2:cjc115_3156"
    INDEX 01 00:33:56
  TRACK 27 AUDIO
    TITLE "0:"
    INDEX 01 00:34:73
  TRACK 28 AUDIO
    TITLE "3:cjc115_3157"
    INDEX 01 00:35:10
  TRACK 29 AUDIO
    TITLE "0:"
    INDEX 01 00:37:59
  TRACK 30 AUDIO
    TITLE "4:cjc115_3158"
    INDEX 01 00:37:71
  TRACK 31 AUDIO
    TITLE "0:"
    INDEX 01 00:41:49
  TRACK 32 AUDIO
    TITLE "2:cjc115_3159"
    INDEX 01 00:42:65
  TRACK 33 AUDIO
    TITLE "0:"
    INDEX 01 00:44:32
  TRACK 34 AUDIO
    TITLE "3:cjc115_3160"
    INDEX 01 00:44:44
  TRACK 35 AUDIO
    TITLE "0:"
    INDEX 01 00:45:59
  TRACK 36 AUDIO
    TITLE "4:cjc115_3161"
    INDEX 01 00:45:71
  TRACK 37 AUDIO
    TITLE "0:"
    INDEX 01 00:50:19
  TRACK 38 AUDIO
    TITLE "2:cjc115_3162"
    INDEX 01 00:51:34
  TRACK 39 AUDIO
    TITLE "0:"
    INDEX 01 00:52:43
  TRACK 40 AUDIO
    TITLE "3:cjc115_3163"
    INDEX 01 00:52:55
  TRACK 41 AUDIO
    TITLE "0:"
    INDEX 01 00:54:58
  TRACK 42 AUDIO
    TITLE "4:cjc115_3164"
    INDEX 01 00:54:72
  TRACK 43 AUDIO
    TITLE "0:"
    INDEX 01 00:59:61
  TRACK 44 AUDIO
    TITLE "2:cjc115_3165"
    INDEX 01 01:00:74
  TRACK 45 AUDIO
    TITLE "0:"
    INDEX 01 01:01:62
  TRACK 46 AUDIO
    TITLE "3:cjc115_3166"
    INDEX 01 01:01:74
  TRACK 47 AUDIO
    TITLE "0:"
    INDEX 01 01:03:67
  TRACK 48 AUDIO
    TITLE "4:cjc115_3167"
    INDEX 01 01:04:00
  TRACK 49 AUDIO
    TITLE "0:"
    INDEX 01 01:06:45
  TRACK 50 AUDIO
    TITLE "2:cjc115_3168"
    INDEX 01 01:07:59
  TRACK 51 AUDIO
    TITLE "0:"
    INDEX 01 01:09:01
  TRACK 52 AUDIO
    TITLE "3:cjc115_3169"
    INDEX 01 01:09:14
  TRACK 53 AUDIO
    TITLE "0:"
    INDEX 01 01:10:16
  TRACK 54 AUDIO
    TITLE "4:cjc115_3170"
    INDEX 01 01:10:30
  TRACK 55 AUDIO
    TITLE "0:"
    INDEX 01 01:13:04
  TRACK 56 AUDIO
    TITLE "2:cjc115_3171"
    INDEX 01 01:14:14
  TRACK 57 AUDIO
    TITLE "0:"
    INDEX 01 01:15:25
  TRACK 58 AUDIO
    TITLE "3:cjc115_3172"
    INDEX 01 01:15:39
  TRACK 59 AUDIO
    TITLE "0:"
    INDEX 01 01:16:44
  TRACK 60 AUDIO
    TITLE "4:cjc115_3173"
    INDEX 01 01:16:56
  TRACK 61 AUDIO
    TITLE "0:"
    INDEX 01 01:20:55
  TRACK 62 AUDIO
    TITLE "2:cjc115_3174"
    INDEX 01 01:21:69
  TRACK 63 AUDIO
    TITLE "0:"
    INDEX 01 01:23:20
  TRACK 64 AUDIO
    TITLE "3:cjc115_3175"
    INDEX 01 01:23:34
  TRACK 65 AUDIO
    TITLE "0:"
    INDEX 01 01:25:37
  TRACK 66 AUDIO
    TITLE "4:cjc115_3176"
    INDEX 01 01:25:57
  TRACK 67 AUDIO
    TITLE "0:"
    INDEX 01 01:28:72
  TRACK 68 AUDIO
    TITLE "2:cjc115_3177"
    INDEX 01 01:30:11
  TRACK 69 AUDIO
    TITLE "0:"
    INDEX 01 01:31:28
  TRACK 70 AUDIO
    TITLE "3:cjc115_3178"
    INDEX 01 01:31:39
  TRACK 71 AUDIO
    TITLE "0:"
    INDEX 01 01:33:56
  TRACK 72 AUDIO
    TITLE "4:cjc115_3179"
    INDEX 01 01:33:68
  TRACK 73 AUDIO
    TITLE "0:"
    INDEX 01 01:38:02
